<?xml version="1.0" standalone="no"?><!DOCTYPE svg PUBLIC "-//W3C//DTD SVG 1.1//EN" "http://www.w3.org/Graphics/SVG/1.1/DTD/svg11.dtd"><svg t="1550210682968" class="icon" style="" viewBox="0 0 1024 1024" version="1.1" xmlns="http://www.w3.org/2000/svg" p-id="4726" xmlns:xlink="http://www.w3.org/1999/xlink" width="200" height="200"><defs><style type="text/css"></style></defs><path d="M945.230769 128c0-15.753846-13.784615-29.538462-29.538461-29.538462h-807.384616C92.553846 98.461538 78.769231 112.246154 78.769231 128v59.076923c0 15.753846 13.784615 29.538462 29.538461 29.538462h807.384616c15.753846 0 29.538462-13.784615 29.538461-29.538462v-59.076923z m-157.538461 236.307692c0-15.753846-13.784615-29.538462-29.538462-29.538461h-649.846154c-15.753846 0-29.538462 13.784615-29.538461 29.538461v59.076923c0 15.753846 13.784615 29.538462 29.538461 29.538462h649.846154c15.753846 0 29.538462-13.784615 29.538462-29.538462v-59.076923z m0 472.615385c0-15.753846-13.784615-29.538462-29.538462-29.538462h-649.846154c-15.753846 0-29.538462 13.784615-29.538461 29.538462v59.076923c0 15.753846 13.784615 29.538462 29.538461 29.538462h649.846154c15.753846 0 29.538462-13.784615 29.538462-29.538462v-59.076923z m157.538461-236.307692c0-15.753846-13.784615-29.538462-29.538461-29.538462h-807.384616c-15.753846 0-29.538462 13.784615-29.538461 29.538462v59.076923c0 15.753846 13.784615 29.538462 29.538461 29.538461h807.384616c15.753846 0 29.538462-13.784615 29.538461-29.538461v-59.076923z" p-id="4727" fill="#8a8a8a"></path></svg>