<?xml version="1.0" standalone="no"?><!DOCTYPE svg PUBLIC "-//W3C//DTD SVG 1.1//EN" "http://www.w3.org/Graphics/SVG/1.1/DTD/svg11.dtd"><svg t="1550213215020" class="icon" style="" viewBox="0 0 1024 1024" version="1.1" xmlns="http://www.w3.org/2000/svg" p-id="4730" xmlns:xlink="http://www.w3.org/1999/xlink" width="200" height="200"><defs><style type="text/css"></style></defs><path d="M905.846154 275.692308H458.830769c-27.569231 0-53.169231-15.753846-68.923077-39.384616l-68.923077-118.153846c-13.784615-23.630769-39.384615-39.384615-68.923077-39.384615H118.153846C74.830769 78.769231 39.384615 114.215385 39.384615 157.538462v708.923076c0 43.323077 35.446154 78.769231 78.769231 78.769231h787.692308c43.323077 0 78.769231-35.446154 78.769231-78.769231V354.461538c0-43.323077-35.446154-78.769231-78.769231-78.76923z m0-157.538462H431.261538c-7.876923 0-11.815385 7.876923-7.876923 13.784616l31.507693 53.16923c3.938462 7.876923 9.846154 11.815385 17.723077 11.815385h433.230769c21.661538 0 43.323077 3.938462 61.046154 11.815385 7.876923 3.938462 17.723077-1.969231 17.723077-11.815385 0-43.323077-35.446154-78.769231-78.769231-78.769231z" p-id="4731" fill="#8a8a8a"></path></svg>